<svg width="55" height="55" viewBox="0 0 55 55" fill="none" xmlns="http://www.w3.org/2000/svg">
<path d="M35.885 34.3664C35.885 39.573 31.0087 39.4527 30.4931 39.4527H20.5624V29.4238H30.4931C35.7181 29.4238 35.885 33.3401 35.885 34.3664ZM29.7282 25.3884C29.8105 25.3884 34.4474 25.5112 34.4474 20.9307C34.4474 19.0253 34.0165 16.527 29.7282 16.527H20.5624V25.3884H29.7282ZM55 9.16708V45.8329C54.9929 48.262 54.0248 50.5895 52.3072 52.3072C50.5895 54.0248 48.262 54.9929 45.8329 55H9.16708C6.73801 54.9929 4.41046 54.0248 2.69285 52.3072C0.975227 50.5895 0.00712531 48.262 0 45.8329L0 9.16708C0.00712531 6.73801 0.975227 4.41046 2.69285 2.69285C4.41046 0.975228 6.73801 0.00712531 9.16708 0H45.8329C48.262 0.00712531 50.5895 0.975228 52.3072 2.69285C54.0248 4.41046 54.9929 6.73801 55 9.16708ZM41.5017 35.0944C41.5017 32.4463 40.6853 27.9383 35.4799 26.826V26.7364C38.2925 25.5357 40.0641 23.2682 40.0641 19.9056C40.0641 19.0462 40.3096 11.9527 30.5373 11.9527H14.9458V44.0356C30.6883 44.0356 32.1173 44.2419 35.0306 43.3346C36.7751 42.792 41.5017 41.1272 41.5017 35.0944Z" fill="#701CDA"/>
</svg>
