<svg width="60" height="60" viewBox="0 0 60 60" fill="none" xmlns="http://www.w3.org/2000/svg">
<path d="M22.2 2.40002C16.581 2.40002 12 6.98105 12 12.6C12 16.5604 14.3399 19.9115 17.6508 21.6C14.3399 23.2886 12 26.6397 12 30.6C12 34.5604 14.3399 37.9115 17.6508 39.6C14.3399 41.2886 12 44.6397 12 48.6C12 54.219 16.581 58.8 22.2 58.8C27.819 58.8 32.4 54.219 32.4 48.6V39.6V35.5875C34.0096 38.6421 37.1185 40.8 40.8 40.8C46.0877 40.8 50.4 36.4877 50.4 31.2C50.4 26.8539 47.4314 23.3144 43.4578 22.1391C47.4643 20.7621 50.4 17.0643 50.4 12.6C50.4 6.98105 45.819 2.40002 40.2 2.40002H31.2H22.2ZM22.2 4.80002H30V20.4H22.2C17.8782 20.4 14.4 16.9218 14.4 12.6C14.4 8.2782 17.8782 4.80002 22.2 4.80002ZM32.4 4.80002H40.2C44.5218 4.80002 48 8.2782 48 12.6C48 16.9218 44.5218 20.4 40.2 20.4H32.4V4.80002ZM22.2 22.8H30V38.4H22.2C17.8782 38.4 14.4 34.9218 14.4 30.6C14.4 26.2782 17.8782 22.8 22.2 22.8ZM32.4 22.8H36.4125C34.6906 23.7074 33.3074 25.0906 32.4 26.8125V22.8ZM40.8 24C44.7907 24 48 27.2094 48 31.2C48 35.1907 44.7907 38.4 40.8 38.4C36.8093 38.4 33.6 35.1907 33.6 31.2C33.6 27.2094 36.8093 24 40.8 24ZM22.2 40.8H30V48.6C30 52.9219 26.5218 56.4 22.2 56.4C17.8782 56.4 14.4 52.9219 14.4 48.6C14.4 44.2782 17.8782 40.8 22.2 40.8Z" fill="#800ADD"/>
</svg>
