<svg width="58" height="51" viewBox="0 0 58 51" fill="none" xmlns="http://www.w3.org/2000/svg">
<path d="M47.3742 16.447C46.7625 16.2431 46.1508 16.0505 45.5391 15.8693C45.641 15.4501 45.7316 15.031 45.8223 14.6119C47.2156 7.8603 46.298 2.43413 43.2055 0.644287C40.2262 -1.06626 35.3664 0.712255 30.45 4.99429C29.9629 5.41343 29.4871 5.85522 29.034 6.29702C28.7281 6.00249 28.4109 5.70796 28.0938 5.42476C22.9395 0.848193 17.7738 -1.07759 14.6813 0.723583C11.7133 2.44546 10.8297 7.55444 12.0758 13.9435C12.2004 14.5779 12.3363 15.2009 12.4949 15.8353C11.7699 16.0392 11.0562 16.2658 10.3879 16.5037C4.33867 18.5994 0 21.9072 0 25.3283C0 28.8626 4.62188 32.4083 10.909 34.5607C11.4188 34.7306 11.9285 34.9005 12.4496 35.0478C12.2797 35.7275 12.1324 36.3958 11.9965 37.0869C10.807 43.374 11.7359 48.3583 14.7039 50.0689C17.7625 51.8361 22.9055 50.0236 27.9125 45.6396C28.309 45.2884 28.7055 44.9259 29.102 44.5408C29.6004 45.0279 30.1215 45.4923 30.6426 45.9455C35.491 50.1142 40.2828 51.8021 43.2395 50.0915C46.298 48.3244 47.2949 42.9662 46.0035 36.4412C45.9016 35.9427 45.7883 35.433 45.6637 34.9119C46.0262 34.8099 46.3773 34.6966 46.7285 34.5833C53.2648 32.4197 58 28.9193 58 25.3283C58 21.8958 53.5367 18.5654 47.3742 16.447ZM32.0473 6.82944C36.2613 3.15913 40.1922 1.72046 41.982 2.75132C43.8965 3.85015 44.6328 8.29077 43.432 14.1248C43.3527 14.5099 43.2734 14.8837 43.1715 15.2576C40.6566 14.6912 38.1078 14.2833 35.5477 14.0568C34.075 11.9498 32.4664 9.93335 30.7219 8.04155C31.1637 7.62241 31.5941 7.22593 32.0473 6.82944ZM18.9406 31.2076C19.5184 32.1931 20.1074 33.1787 20.7305 34.1415C18.9633 33.949 17.2074 33.6658 15.4742 33.2919C15.9727 31.6607 16.5957 29.9728 17.3207 28.2509C17.8418 29.2478 18.3742 30.2333 18.9406 31.2076ZM15.5082 17.5798C17.1395 17.2173 18.8727 16.9228 20.6738 16.6962C20.0734 17.6365 19.4844 18.5994 18.9293 19.5736C18.3742 20.5365 17.8305 21.522 17.3207 22.5189C16.607 20.831 16.0066 19.1771 15.5082 17.5798ZM18.6121 25.3849C19.3598 23.8216 20.1754 22.2923 21.0363 20.7857C21.8973 19.2791 22.8262 17.8177 23.8004 16.3791C25.4996 16.2544 27.2328 16.1865 29 16.1865C30.7672 16.1865 32.5117 16.2544 34.1996 16.3791C35.1625 17.8064 36.0801 19.2677 36.9523 20.763C37.8246 22.2583 38.6402 23.7876 39.4105 25.3396C38.6516 26.9029 37.8359 28.4435 36.9637 29.9615C36.1027 31.4681 35.1852 32.9294 34.2223 34.3794C32.5344 34.504 30.7785 34.5607 29 34.5607C27.2215 34.5607 25.4996 34.5041 23.8344 34.4021C22.8488 32.9634 21.9199 31.4908 21.0477 29.9841C20.1754 28.4775 19.3711 26.9482 18.6121 25.3849ZM39.0707 31.1849C39.6484 30.188 40.1922 29.1798 40.7246 28.1603C41.4496 29.8029 42.084 31.4681 42.6391 33.1787C40.8832 33.5751 39.1047 33.881 37.3148 34.0849C37.9266 33.1333 38.5043 32.1591 39.0707 31.1849ZM40.702 22.5189C40.1695 21.522 39.6258 20.5251 39.0594 19.5509C38.5043 18.588 37.9266 17.6365 37.3262 16.6962C39.15 16.9228 40.8945 17.2287 42.5258 17.6025C42.0047 19.279 41.393 20.9103 40.702 22.5189ZM29.0227 9.77476C30.2121 11.0662 31.3336 12.4255 32.3758 13.8302C30.1328 13.7283 27.8785 13.7283 25.6355 13.8302C26.7457 12.3689 27.8898 11.0095 29.0227 9.77476ZM15.882 2.83061C17.7852 1.72046 22.0105 3.3064 26.4625 7.24858C26.7457 7.4978 27.0289 7.76968 27.3234 8.04155C25.5676 9.93335 23.9477 11.9498 22.4637 14.0568C19.9035 14.2833 17.366 14.6798 14.8512 15.2349C14.7039 14.6572 14.5793 14.0681 14.4547 13.4791C13.3898 7.99624 14.0922 3.86147 15.882 2.83061ZM13.1066 32.6915C12.6309 32.5556 12.1664 32.4083 11.702 32.2498C9.28906 31.4908 6.54766 30.29 4.56523 28.7154C3.42109 27.9224 2.65078 26.699 2.43555 25.3283C2.43555 23.2552 6.01523 20.6044 11.1809 18.8033C11.8266 18.5767 12.4836 18.3728 13.1406 18.1802C13.9109 20.6384 14.8398 23.0513 15.916 25.3849C14.8285 27.7525 13.8883 30.1994 13.1066 32.6915ZM26.3152 43.7931C24.4461 45.5037 22.2824 46.863 19.9262 47.7919C18.6687 48.3923 17.2188 48.449 15.9273 47.9392C14.1262 46.897 13.3785 42.8982 14.398 37.5173C14.5227 36.883 14.6586 36.2486 14.8172 35.6255C17.3547 36.1693 19.9148 36.5431 22.509 36.7357C24.0043 38.854 25.6469 40.8818 27.4027 42.7849C27.0402 43.1361 26.6777 43.4759 26.3152 43.7931ZM29.0906 41.0404C27.9352 39.7943 26.7797 38.4123 25.6582 36.9283C26.7457 36.9736 27.8672 36.9962 29 36.9962C30.1668 36.9962 31.3109 36.9736 32.4437 36.9169C31.4016 38.3556 30.2801 39.7263 29.0906 41.0404ZM43.8965 44.4388C43.7945 45.8208 43.1148 47.1123 42.0273 47.9845C40.2262 49.0267 36.3859 47.6673 32.2398 44.1103C31.7641 43.7025 31.2883 43.2607 30.8012 42.8076C32.5344 40.8931 34.1316 38.8654 35.5816 36.7357C38.1758 36.5205 40.7586 36.124 43.3074 35.5462C43.4207 36.0107 43.5227 36.4751 43.6133 36.9283C44.1684 39.3751 44.259 41.924 43.8965 44.4388ZM45.9582 32.2611C45.641 32.363 45.3238 32.465 44.9953 32.5556C44.2023 30.0861 43.2281 27.6732 42.1066 25.3283C43.1941 23.0173 44.1117 20.6384 44.882 18.2029C45.4711 18.3728 46.0375 18.554 46.5813 18.7353C51.8602 20.5478 55.5645 23.2439 55.5645 25.3056C55.5645 27.5259 51.6109 30.3919 45.9582 32.2611ZM29 30.5619C31.866 30.5619 34.1883 28.2396 34.1883 25.3736C34.1883 22.5076 31.866 20.1853 29 20.1853C26.134 20.1853 23.8117 22.5076 23.8117 25.3736C23.8117 28.2396 26.134 30.5619 29 30.5619Z" fill="#800ADD"/>
</svg>
