<svg width="66" height="50" viewBox="0 0 66 50" fill="none" xmlns="http://www.w3.org/2000/svg">
<path d="M31.1272 37.8006C31.0963 37.8631 31.0654 37.9131 31.1272 37.8006ZM56.8191 28.7389C54.7449 28.7382 52.6984 29.2193 50.8378 30.145C50.2293 28.9055 49.6002 27.8223 49.4971 27.0099C49.3734 26.062 49.2393 25.4996 49.3837 24.3747C49.5281 23.2497 50.1777 21.6561 50.1674 21.5416C50.1571 21.427 50.0231 20.8541 48.6927 20.8437C47.3624 20.8333 46.2177 21.1041 46.0847 21.4582C45.8497 22.1054 45.6669 22.7707 45.5381 23.4476C45.3009 24.6663 42.8785 29.0201 41.5069 31.2908C41.0531 30.4054 40.6716 29.6242 40.5891 28.9993C40.4653 28.0514 40.3313 27.489 40.4756 26.3641C40.62 25.2392 41.2697 23.6455 41.2594 23.531C41.2491 23.4164 41.115 22.8435 39.7857 22.8331C38.4564 22.8227 37.3107 23.0935 37.1766 23.4476C37.0426 23.8018 36.8982 24.6351 36.6301 25.4371C36.3619 26.2391 33.1351 33.4885 32.2905 35.3738C31.8574 36.332 31.4861 37.1028 31.218 37.6236C31.1767 37.7069 31.1458 37.759 31.1252 37.8006C31.1561 37.7486 31.1767 37.6965 31.1767 37.7173C30.9499 38.1652 30.8158 38.4152 30.8158 38.4152V38.4256C30.6405 38.7589 30.4445 39.061 30.3517 39.061C30.2899 39.061 30.1558 38.186 30.3827 36.9882C30.8674 34.4676 32.0121 30.5512 32.0018 30.4158C31.9914 30.3429 32.2183 29.6659 31.2489 29.3013C30.3105 28.9576 29.9702 29.5305 29.8877 29.5305C29.8052 29.5305 29.7433 29.7388 29.7433 29.7388C29.7433 29.7388 30.7849 25.3225 27.7437 25.3225C25.8462 25.3225 23.2061 27.4265 21.9088 29.3326C21.0941 29.7805 19.3306 30.7491 17.4744 31.7803C16.7628 32.1761 16.0306 32.5823 15.3397 32.9677C15.2881 32.9156 15.2468 32.8635 15.1953 32.8115C11.5044 28.8326 4.68981 26.0204 4.97857 20.677C5.08169 18.7293 5.75201 13.6151 18.0828 7.40729C28.1892 2.32437 36.2691 3.72009 37.6603 6.824C39.6609 11.2507 33.3403 19.4896 22.8452 20.677C18.8449 21.1249 16.7422 19.5625 16.2162 18.9793C15.6697 18.3647 15.5872 18.3335 15.3809 18.4481C15.0406 18.6355 15.2572 19.1772 15.3809 19.5001C15.6903 20.3229 16.9794 21.7811 19.1749 22.5102C21.1034 23.1456 25.7936 23.4997 31.4645 21.2812C37.8356 18.8022 42.7949 11.8965 41.3409 6.11573C39.86 0.241205 30.2156 -1.68572 21.0962 1.58485C15.6624 3.5326 9.78631 6.59485 5.55917 10.5841C0.537951 15.3337 -0.265402 19.4688 0.0646021 21.1978C1.23921 27.3327 9.61099 31.3324 12.9616 34.2905C12.7966 34.3843 12.6419 34.4676 12.4975 34.5509C10.8176 35.3946 4.43509 38.7693 2.83767 42.3315C1.03296 46.3729 3.13673 49.2685 4.51759 49.6643C8.82724 50.8725 13.24 48.6956 15.6109 45.123C17.9817 41.5503 17.694 36.8841 16.6009 34.7592C16.5906 34.728 16.5699 34.7071 16.5596 34.6759C16.9928 34.4155 17.4362 34.1551 17.8797 33.8947C18.7346 33.3843 19.5699 32.9156 20.3021 32.5094C19.8896 33.6343 19.5905 34.9884 19.4358 36.9465C19.2502 39.238 20.1886 42.2065 21.4055 43.3731C21.9418 43.8835 22.5905 43.8939 22.9926 43.8939C24.4158 43.8939 25.0552 42.7065 25.7657 41.2899C26.6423 39.5609 27.4157 37.5507 27.4157 37.5507C27.4157 37.5507 26.4463 42.9877 29.0967 42.9877C30.065 42.9877 31.0344 41.7274 31.4686 41.0816V41.092C31.4686 41.092 31.4892 41.0504 31.5408 40.9671C31.6439 40.8108 31.6955 40.7171 31.6955 40.7171V40.6858C32.0873 40.0088 32.9433 38.4568 34.2313 35.8945C35.902 32.5823 37.4994 28.4472 37.4994 28.4472C37.6538 29.3562 37.8674 30.2539 38.1388 31.1345C38.4275 32.124 39.036 33.2073 39.5207 34.2593C39.1288 34.8009 38.8916 35.1134 38.8916 35.1134C38.8924 35.1214 38.896 35.1288 38.9019 35.1342C38.5926 35.5508 38.2419 35.9987 37.881 36.4362C36.562 38.0194 34.9934 39.8317 34.7872 40.3525C34.5397 40.9671 34.6016 41.4253 35.0759 41.7795C35.4266 42.0503 36.0453 42.092 36.694 42.0399C37.8799 41.9566 38.7153 41.6649 39.1175 41.4774C39.8589 41.2089 40.5597 40.8373 41.1996 40.3734C42.4887 39.4151 43.2724 38.0402 43.2002 36.2279C43.159 35.2279 42.8393 34.228 42.4474 33.2906C42.5608 33.1239 42.6846 32.9469 42.798 32.7698C44.8389 29.7596 46.4167 26.4557 46.4167 26.4557C46.5711 27.3647 46.7847 28.2624 47.0561 29.143C47.3036 29.9867 47.7873 30.9137 48.2307 31.8199C46.3136 33.3927 45.1277 35.2154 44.7152 36.4133C43.952 38.6318 44.5501 39.6317 45.6742 39.8609C46.1795 39.9651 46.9014 39.7255 47.4377 39.4963C48.2341 39.2284 48.985 38.8385 49.6642 38.3402C50.9533 37.3819 52.2001 36.0383 52.1175 34.2155C52.0866 33.3927 51.8597 32.5698 51.5607 31.7782C53.1798 31.0908 55.2825 30.7158 57.9638 31.0283C63.7058 31.7053 64.8299 35.33 64.6133 36.8403C64.3968 38.3506 63.1902 39.1943 62.788 39.4443C62.3858 39.6942 62.2621 39.788 62.293 39.9755C62.3446 40.2463 62.5302 40.2359 62.8705 40.1734C63.3449 40.09 65.8808 38.9443 65.9942 36.1424C66.1592 32.6011 62.788 28.7056 56.816 28.7368L56.8191 28.7389ZM12.5594 43.8106C10.6629 45.9042 8.00223 46.6958 6.85856 46.0291C5.63135 45.3084 6.11605 42.2274 8.45598 39.9963C9.87912 38.6422 11.7137 37.3923 12.9306 36.6216C13.2091 36.4549 13.6113 36.2049 14.1063 35.9029C14.1888 35.8508 14.23 35.83 14.23 35.83C14.3228 35.7675 14.426 35.7154 14.5291 35.6529C15.384 38.8193 14.56 41.6107 12.5594 43.8085V43.8106ZM26.4154 34.2905C25.7554 35.9258 24.3642 40.0921 23.5186 39.8734C22.7967 39.6859 22.3533 36.5091 23.3742 33.3843C23.8898 31.8115 24.983 29.9367 25.6327 29.2076C26.6732 28.0306 27.8179 27.6556 28.0861 28.1243C28.447 28.7389 26.8279 33.2698 26.4154 34.2905ZM37.8624 39.8109C37.584 39.9567 37.3262 40.0505 37.2024 39.9776C37.1096 39.9255 37.3158 39.7276 37.3158 39.7276C37.3158 39.7276 38.7493 38.1756 39.3165 37.4673C39.6465 37.0507 40.0281 36.5612 40.4395 36.0195C40.4395 36.0716 40.4499 36.1237 40.4499 36.1862C40.4364 38.0506 38.6637 39.3109 37.8593 39.8109H37.8624ZM46.688 37.7798C46.4817 37.634 46.5126 37.1444 47.2036 35.6237C47.4717 35.03 48.0894 34.0301 49.163 33.0719C49.2845 33.4346 49.3506 33.8139 49.3589 34.1968C49.3486 36.5403 47.6883 37.4153 46.689 37.7798H46.688Z" fill="#800ADD"/>
</svg>
