<svg width="65" height="43" viewBox="0 0 65 43" fill="none" xmlns="http://www.w3.org/2000/svg">
<path d="M63.3607 8.2324C62.0391 7.67929 60.509 8.22705 59.8672 9.49357C59.2606 10.6906 58.4509 11.4254 57.392 11.7327C55.7347 12.2217 53.755 11.5938 52.8289 11.0567C51.6075 10.3486 50.1912 9.27447 48.6936 8.13888C43.9138 4.51032 37.9668 0 29.7938 0C23.2565 0 19.8984 3.31059 14.3387 8.79886C13.2798 9.84361 13.2717 11.543 14.3306 12.5851C15.3597 13.6058 17.0116 13.6378 18.0732 12.6652C18.1002 12.6412 18.1273 12.6145 18.1544 12.5904C19.6493 11.4521 29.068 12.5583 33.1843 15.7861C39.3019 20.5823 43.7188 24.0479 48.7505 24.0479C55.9513 24.0479 61.9633 19.396 64.8366 11.6018C65.3267 10.2711 64.6795 8.79351 63.3607 8.2324ZM49.8202 26.9363C48.4986 26.3832 46.9686 26.931 46.3267 28.1975C45.7201 29.3945 44.9104 30.1293 43.8515 30.4366C42.1942 30.9176 40.2146 30.2977 39.2884 29.7606C38.067 29.0525 36.6507 27.9784 35.1531 26.8428C30.3733 23.2142 24.4264 18.7039 16.2533 18.7039C9.71598 18.7039 6.35794 22.0145 0.798223 27.5028C-0.260643 28.5475 -0.268767 30.2469 0.790099 31.289C1.81918 32.3097 3.47382 32.3444 4.5354 31.3691C4.56248 31.3451 4.58956 31.3184 4.61664 31.2943C6.1088 30.1561 15.533 31.2623 19.6466 34.49C25.7615 39.2862 30.1784 42.7518 35.21 42.7518C42.4108 42.7518 48.4228 38.0999 51.2961 30.3057C51.7863 28.975 51.139 27.4974 49.8202 26.9363Z" fill="#800ADD"/>
</svg>
