<svg width="53" height="53" viewBox="0 0 53 53" fill="none" xmlns="http://www.w3.org/2000/svg">
<path d="M51.7 0.0400391H1.30004C0.603259 0.0400391 0.0400391 0.604519 0.0400391 1.30004V51.7C0.0400391 52.3956 0.603259 52.96 1.30004 52.96H51.7C52.3968 52.96 52.96 52.3956 52.96 51.7V1.30004C52.96 0.604519 52.3968 0.0400391 51.7 0.0400391ZM31.54 28.3207H25.24V47.92H20.2V28.3207H13.9V23.98H31.54V28.3207ZM32.9525 46.8012V41.5621C32.9525 41.5621 35.814 43.7192 39.2475 43.7192C42.681 43.7192 42.5487 41.4739 42.5487 41.1664C42.5487 37.9081 32.8202 37.9081 32.8202 30.6895C32.8202 20.8729 46.9952 24.7461 46.9952 24.7461L46.8188 29.4132C46.8188 29.4132 44.4412 27.8281 41.7561 27.8281C39.0711 27.8281 38.1021 29.1045 38.1021 30.469C38.1021 33.9907 47.9188 33.6392 47.9188 40.7267C47.92 51.6433 32.9525 46.8012 32.9525 46.8012Z" fill="#800ADD"/>
</svg>
