<svg width="35" height="35" viewBox="0 0 35 35" fill="none" xmlns="http://www.w3.org/2000/svg">
<path d="M32.0714 0.5H2.92098C1.58527 0.5 0.5 1.60045 0.5 2.95134V32.0487C0.5 33.3996 1.58527 34.5 2.92098 34.5H32.0714C33.4071 34.5 34.5 33.3996 34.5 32.0487V2.95134C34.5 1.60045 33.4071 0.5 32.0714 0.5ZM10.7759 29.6429H5.73661V13.417H10.7835V29.6429H10.7759ZM8.25625 11.2009C6.63973 11.2009 5.33437 9.88795 5.33437 8.27902C5.33437 6.67009 6.63973 5.35714 8.25625 5.35714C9.86518 5.35714 11.1781 6.67009 11.1781 8.27902C11.1781 9.89554 9.87277 11.2009 8.25625 11.2009ZM29.6656 29.6429H24.6263V21.75C24.6263 19.8679 24.5884 17.4469 22.008 17.4469C19.3821 17.4469 18.9799 19.496 18.9799 21.6134V29.6429H13.9406V13.417H18.775V15.633H18.8433C19.5187 14.358 21.1656 13.0147 23.617 13.0147C28.717 13.0147 29.6656 16.3768 29.6656 20.7482V29.6429Z" fill="url(#paint0_linear_419_20)"/>
<defs>
<linearGradient id="paint0_linear_419_20" x1="17.5" y1="0.5" x2="17.5" y2="34.5" gradientUnits="userSpaceOnUse">
<stop stop-color="#5659DA"/>
<stop offset="1" stop-color="#B629F8"/>
</linearGradient>
</defs>
</svg>
