<svg width="218" height="47" viewBox="0 0 218 47" fill="none" xmlns="http://www.w3.org/2000/svg">
<path d="M0.6 38V2.96H11.016C13.384 2.96 15.432 3.408 17.16 4.304C18.92 5.2 20.28 6.464 21.24 8.096C22.2 9.728 22.68 11.664 22.68 13.904V27.008C22.68 29.216 22.2 31.152 21.24 32.816C20.28 34.448 18.92 35.728 17.16 36.656C15.432 37.552 13.384 38 11.016 38H0.6ZM6.6 32.48H11.016C12.744 32.48 14.12 32 15.144 31.04C16.168 30.048 16.68 28.704 16.68 27.008V13.904C16.68 12.24 16.168 10.928 15.144 9.968C14.12 8.976 12.744 8.48 11.016 8.48H6.6V32.48ZM37.2533 38.48C34.5333 38.48 32.3893 37.76 30.8213 36.32C29.2533 34.88 28.4693 32.944 28.4693 30.512C28.4693 27.92 29.3333 25.92 31.0613 24.512C32.7893 23.104 35.2373 22.4 38.4053 22.4H44.9813V20.144C44.9813 18.864 44.5653 17.872 43.7333 17.168C42.9013 16.432 41.7653 16.064 40.3253 16.064C39.0133 16.064 37.9253 16.352 37.0613 16.928C36.1973 17.504 35.6853 18.288 35.5253 19.28H29.6693C29.9573 16.784 31.0773 14.8 33.0293 13.328C34.9813 11.856 37.4773 11.12 40.5173 11.12C43.7493 11.12 46.2933 11.936 48.1493 13.568C50.0373 15.168 50.9813 17.344 50.9813 20.096V38H45.1733V33.392H44.2133L45.1733 32.096C45.1733 34.048 44.4533 35.6 43.0133 36.752C41.5733 37.904 39.6533 38.48 37.2533 38.48ZM39.2213 33.968C40.9173 33.968 42.2933 33.536 43.3493 32.672C44.4373 31.808 44.9813 30.688 44.9813 29.312V26.096H38.5013C37.2853 26.096 36.3093 26.448 35.5733 27.152C34.8373 27.856 34.4693 28.784 34.4693 29.936C34.4693 31.184 34.8853 32.176 35.7173 32.912C36.5813 33.616 37.7493 33.968 39.2213 33.968ZM58.2585 38V11.6H64.1145V16.64H65.7465L64.1145 18.032C64.1145 15.856 64.7385 14.16 65.9865 12.944C67.2665 11.728 69.0105 11.12 71.2185 11.12C73.8105 11.12 75.8745 11.984 77.4105 13.712C78.9785 15.44 79.7625 17.76 79.7625 20.672V38H73.7625V21.296C73.7625 19.696 73.3465 18.464 72.5145 17.6C71.6825 16.736 70.5145 16.304 69.0105 16.304C67.5385 16.304 66.3705 16.752 65.5065 17.648C64.6745 18.544 64.2585 19.824 64.2585 21.488V38H58.2585ZM86.9918 38V32.528H96.2078V17.024H88.1918V11.6H101.968V32.528H110.128V38H86.9918ZM98.6078 7.184C97.3918 7.184 96.4318 6.88 95.7278 6.272C95.0238 5.632 94.6718 4.784 94.6718 3.728C94.6718 2.672 95.0238 1.84 95.7278 1.232C96.4318 0.591999 97.3918 0.271999 98.6078 0.271999C99.8238 0.271999 100.784 0.591999 101.488 1.232C102.192 1.84 102.544 2.672 102.544 3.728C102.544 4.784 102.192 5.632 101.488 6.272C100.784 6.88 99.8238 7.184 98.6078 7.184ZM126.573 38.48C124.333 38.48 122.381 38.048 120.717 37.184C119.053 36.32 117.757 35.12 116.829 33.584C115.933 32.016 115.485 30.192 115.485 28.112V21.488C115.485 19.408 115.933 17.6 116.829 16.064C117.757 14.496 119.053 13.28 120.717 12.416C122.381 11.552 124.333 11.12 126.573 11.12C128.781 11.12 130.701 11.552 132.333 12.416C133.997 13.28 135.277 14.496 136.173 16.064C137.101 17.6 137.565 19.408 137.565 21.488V26.24H121.293V28.112C121.293 29.968 121.741 31.376 122.637 32.336C123.533 33.264 124.861 33.728 126.621 33.728C127.965 33.728 129.053 33.504 129.885 33.056C130.717 32.576 131.245 31.888 131.469 30.992H137.373C136.925 33.264 135.709 35.088 133.725 36.464C131.773 37.808 129.389 38.48 126.573 38.48ZM131.757 22.88V21.44C131.757 19.616 131.325 18.224 130.461 17.264C129.597 16.272 128.301 15.776 126.573 15.776C124.845 15.776 123.533 16.272 122.637 17.264C121.741 18.256 121.293 19.664 121.293 21.488V22.496L132.189 22.4L131.757 22.88ZM159.338 38C157.61 38 156.09 37.648 154.778 36.944C153.498 36.24 152.49 35.248 151.754 33.968C151.018 32.656 150.65 31.152 150.65 29.456V8.384H142.202V2.96H156.65V29.456C156.65 30.416 156.922 31.184 157.466 31.76C158.042 32.304 158.81 32.576 159.77 32.576H167.738V38H159.338ZM177.656 46.64L181.352 36.56L171.512 11.6H178.088L182.984 25.088C183.24 25.824 183.496 26.72 183.752 27.776C184.008 28.8 184.2 29.648 184.328 30.32C184.488 29.648 184.696 28.8 184.952 27.776C185.208 26.72 185.464 25.824 185.72 25.088L190.328 11.6H196.664L183.944 46.64H177.656Z" fill="#141414"/>
<path d="M212.869 38.48C211.493 38.48 210.389 38.08 209.557 37.28C208.757 36.48 208.357 35.392 208.357 34.016C208.357 32.64 208.757 31.552 209.557 30.752C210.389 29.92 211.493 29.504 212.869 29.504C214.245 29.504 215.333 29.92 216.133 30.752C216.965 31.552 217.381 32.64 217.381 34.016C217.381 35.392 216.965 36.48 216.133 37.28C215.333 38.08 214.245 38.48 212.869 38.48Z" fill="url(#paint0_linear_15_79)"/>
<defs>
<linearGradient id="paint0_linear_15_79" x1="112.5" y1="-9" x2="112.5" y2="51" gradientUnits="userSpaceOnUse">
<stop stop-color="#5659DA"/>
<stop offset="1" stop-color="#B629F8"/>
</linearGradient>
</defs>
</svg>
